<svg width="216" height="201" viewBox="0 0 216 201" fill="none" xmlns="http://www.w3.org/2000/svg">
<path d="M87.3128 0.913019L91.4976 9.31188L94.1253 0.388257L97.7196 0.111389L91.9376 16.7431L83.6767 1.19311L87.3128 0.913019Z" fill="white"/>
<path d="M60.3067 10.6767C60.9526 10.6079 61.6094 10.5956 62.277 10.6399L62.3426 8.04432C61.6143 7.93576 60.8335 7.91321 60.0002 7.97666C59.1796 8.03422 58.2054 8.3249 57.0775 8.84869C56.2334 9.28691 55.5643 9.83646 55.0701 10.4973C54.57 11.1455 54.2745 11.8528 54.1836 12.6191C54.1054 13.3795 54.2546 14.1653 54.6312 14.9763C54.9432 15.648 55.3284 16.1623 55.7869 16.5194C56.2523 16.8579 56.7549 17.0944 57.2949 17.2288C57.8417 17.3446 58.3932 17.4043 58.9495 17.4078C59.5058 17.4114 60.0376 17.3955 60.545 17.3602C60.9772 17.3289 61.3896 17.3377 61.782 17.3865C62.1871 17.4295 62.5313 17.5238 62.8147 17.6695C63.1107 17.8094 63.3235 18.0187 63.453 18.2975C63.6413 18.703 63.6744 19.0728 63.5522 19.4068C63.4427 19.735 63.2404 20.0292 62.9453 20.2895C62.657 20.5312 62.3481 20.7286 62.0186 20.8816C61.6891 21.0347 61.3044 21.1517 60.8645 21.2328C60.4245 21.3138 59.9669 21.3569 59.4917 21.3619C59.0232 21.3484 58.5683 21.2977 58.127 21.2099L57.908 23.923C58.5611 24.0356 59.2068 24.0824 59.845 24.0633C60.4773 24.0316 61.0924 23.9462 61.6903 23.8072C62.295 23.6496 62.8635 23.4473 63.3957 23.2001C64.4349 22.7175 65.224 22.1276 65.763 21.4305C66.2961 20.7208 66.6052 19.9764 66.6902 19.1974C66.7752 18.4185 66.6529 17.6741 66.3234 16.9644C66.0114 16.2928 65.6545 15.773 65.2525 15.405C64.8447 15.0244 64.4117 14.7556 63.9537 14.5986C63.4897 14.4289 63.0079 14.3368 62.5082 14.3224C62.0153 14.2894 61.5307 14.291 61.0546 14.3273C60.5345 14.3685 60.0183 14.3849 59.5059 14.3763C59.0062 14.3619 58.5645 14.2898 58.1806 14.1599C57.8036 14.0115 57.5386 13.7725 57.3855 13.443C57.1619 12.9614 57.1652 12.5208 57.3956 12.1211C57.6259 11.7214 58.0389 11.3833 58.6345 11.1067C59.1161 10.883 59.6735 10.7397 60.3067 10.6767Z" fill="white"/>
<path fill-rule="evenodd" clip-rule="evenodd" d="M27.7989 29.3644C28.4276 28.6335 29.0833 28.064 29.766 27.656C30.4381 27.2388 31.113 26.9899 31.7906 26.9093C32.4667 26.8089 33.1349 26.8676 33.7954 27.0855C34.4452 27.2942 35.072 27.6583 35.6758 28.1777C36.1525 28.5877 36.5654 29.0719 36.9145 29.6302C37.2728 30.1779 37.5067 30.7846 37.6161 31.4501C37.7077 31.9557 37.7008 32.4865 37.5953 33.0423L44.1818 33.9734L41.872 36.6588L36.0292 35.9306L34.7096 37.4649L38.4278 40.6631L36.446 42.9671L24.7511 32.9079L27.7989 29.3644ZM33.8927 33.9148C34.1934 33.5652 34.3857 33.2238 34.4696 32.8905C34.5536 32.5572 34.5602 32.2496 34.4894 31.9676C34.4278 31.6749 34.3244 31.4202 34.1793 31.2032C34.0327 30.9665 33.8746 30.7753 33.7051 30.6295C33.578 30.5201 33.4009 30.4047 33.1738 30.283C32.9452 30.1417 32.6801 30.0427 32.3786 29.9861C32.0771 29.9295 31.7527 29.9638 31.4054 30.089C31.0673 30.2036 30.7251 30.4622 30.3788 30.8647L28.9574 32.5173L32.485 35.5514L33.8927 33.9148Z" fill="white"/>
<path fill-rule="evenodd" clip-rule="evenodd" d="M127.513 5.39793C126.764 4.76455 125.773 4.29395 124.539 3.98612L120.004 2.85461L116.27 17.8217L119.218 18.5574L120.401 13.8192L122.516 14.3469C123.492 14.5905 124.349 14.646 125.088 14.5135C125.843 14.3708 126.48 14.0977 126.999 13.6942C127.531 13.2941 127.961 12.8109 128.289 12.2448C128.635 11.6686 128.884 11.0754 129.036 10.4653C129.293 9.43499 129.291 8.49119 129.029 7.63391C128.771 6.76309 128.266 6.01776 127.513 5.39793ZM124.385 11.5299C124.049 11.6046 123.658 11.5861 123.211 11.4745L121.116 10.9519L122.243 6.43735L124.357 6.96505C124.873 7.09359 125.257 7.28319 125.512 7.53385C125.779 7.7879 125.956 8.06232 126.041 8.35711C126.126 8.65191 126.156 8.93317 126.133 9.20091C126.126 9.45847 126.104 9.66181 126.067 9.81094C126.019 10.0007 125.923 10.2143 125.777 10.4516C125.645 10.6922 125.461 10.9126 125.224 11.1127C125.003 11.3025 124.724 11.4416 124.385 11.5299Z" fill="white"/>
<path d="M162.332 164.887L170.701 158.511L172.48 160.845L166.528 165.38L168.522 167.997L173.79 163.983L175.569 166.317L170.3 170.331L172.32 172.982L178.505 168.27L180.283 170.604L171.681 177.158L162.332 164.887Z" fill="white"/>
<path fill-rule="evenodd" clip-rule="evenodd" d="M144.161 175.081C145.053 174.715 145.896 174.505 146.689 174.452C147.477 174.385 148.192 174.47 148.832 174.705C149.48 174.923 150.049 175.278 150.538 175.772C151.023 176.253 151.416 176.862 151.718 177.599C151.957 178.181 152.105 178.8 152.162 179.456C152.233 180.106 152.166 180.753 151.962 181.396C151.814 181.888 151.566 182.358 151.22 182.805L156.666 186.625L153.389 187.969L148.514 184.668L146.641 185.436L148.502 189.973L145.691 191.127L139.837 176.855L144.161 175.081ZM147.525 181.902C147.952 181.727 148.278 181.51 148.504 181.251C148.73 180.992 148.876 180.721 148.941 180.437C149.018 180.149 149.042 179.875 149.011 179.616C148.988 179.338 148.934 179.096 148.849 178.889C148.786 178.734 148.68 178.551 148.533 178.339C148.393 178.11 148.202 177.901 147.959 177.714C147.716 177.526 147.412 177.41 147.045 177.364C146.692 177.312 146.27 177.387 145.779 177.589L143.762 178.416L145.528 182.721L147.525 181.902Z" fill="white"/>
<path d="M111.801 183.869L122.226 182.445L122.623 185.352L115.209 186.365L115.655 189.625L122.217 188.729L122.614 191.636L116.052 192.533L116.503 195.834L124.208 194.782L124.605 197.689L113.89 199.153L111.801 183.869Z" fill="white"/>
<path d="M90.4793 200.111L92.7834 184.858L89.7784 184.405L88.8486 190.56L82.0304 189.53L82.9602 183.375L79.9552 182.921L77.6511 198.174L80.6561 198.627L81.5921 192.431L88.4103 193.461L87.4743 199.657L90.4793 200.111Z" fill="white"/>
<path d="M146.718 16.2749C144.809 15.5202 143.057 15.0797 141.572 15.0797L141.572 16.3896C142.822 16.3896 144.398 16.7665 146.236 17.4931C148.065 18.2165 150.114 19.2704 152.295 20.586C156.658 23.217 161.511 26.8687 166.145 30.9343C170.78 34.9994 175.181 39.4652 178.645 43.7173C181.556 47.2907 183.771 50.6708 184.927 53.5101L181.296 51.4643C180.981 51.2867 180.581 51.3982 180.404 51.7134C180.226 52.0285 180.338 52.428 180.653 52.6055L185.788 55.4992C186.104 55.6767 186.503 55.5652 186.681 55.2501L189.574 50.1144C189.752 49.7992 189.64 49.3998 189.325 49.2222C189.01 49.0447 188.611 49.1562 188.433 49.4713L186.262 53.3242C185.061 50.2206 182.688 46.6061 179.661 42.8899C176.142 38.5708 171.687 34.0531 167.009 29.9496C162.332 25.8466 157.416 22.1447 152.972 19.4642C150.749 18.124 148.634 17.0328 146.718 16.2749Z" fill="white"/>
<path d="M22.6906 50.5622C20.4235 52.8031 18.3626 56.4476 16.6037 60.7408C14.8387 65.0491 13.3535 70.0711 12.2651 75.1219C11.1768 80.1727 10.4816 85.269 10.3036 89.7278C10.1264 94.1643 10.4571 98.0487 11.4789 100.626L12.6966 100.144C11.7795 97.8298 11.4371 94.1728 11.6125 89.7801C11.787 85.4098 12.4701 80.3893 13.5457 75.3979C14.6213 70.4064 16.0857 65.4605 17.8159 61.2375C19.5522 56.9993 21.5322 53.549 23.6115 51.4938L22.6906 50.5622Z" fill="white"/>
<path d="M53.1864 181.479C57.309 183.607 61.2409 185.045 64.4199 185.282L64.517 183.975C61.6015 183.759 57.857 182.416 53.7873 180.315C49.7321 178.221 45.4105 175.405 41.3555 172.302C37.3004 169.199 33.5253 165.82 30.559 162.605C28.2095 160.06 26.401 157.653 25.3474 155.594L29.0449 157.414C29.3695 157.574 29.7621 157.44 29.9218 157.115C30.0815 156.791 29.9479 156.398 29.6234 156.239L24.3345 153.636C24.0099 153.476 23.6173 153.609 23.4576 153.934L20.8545 159.223C20.6948 159.547 20.8284 159.94 21.153 160.1C21.4775 160.259 21.8701 160.126 22.0299 159.801L23.9936 155.811C25.1069 158.135 27.0947 160.783 29.5964 163.494C32.6228 166.773 36.4561 170.203 40.5594 173.342C44.6627 176.482 49.0494 179.343 53.1864 181.479Z" fill="white"/>
<path d="M187.831 154.564C188.979 153.808 190.107 152.579 191.193 151.033C192.284 149.48 193.358 147.571 194.387 145.418C196.447 141.112 198.351 135.784 199.868 130.27C201.386 124.755 202.523 119.035 203.041 113.939C203.557 108.865 203.469 104.331 202.477 101.237L201.229 101.637C202.136 104.465 202.25 108.774 201.738 113.806C201.229 118.816 200.108 124.464 198.605 129.923C197.103 135.382 195.224 140.633 193.206 144.853C192.197 146.963 191.158 148.804 190.121 150.28C189.079 151.763 188.063 152.843 187.111 153.469L187.831 154.564Z" fill="white"/>
<path fill-rule="evenodd" clip-rule="evenodd" d="M170.102 62.7142C150.125 40.14 126.642 30.2635 99.6515 33.0845L89.1316 34.184C58.9534 37.3382 39.0221 61.4486 29.3378 106.515C13.7853 118.048 4.07998 125.913 0.221802 130.11C0.940973 136.991 9.58895 139.565 26.1657 137.833C33.8166 137.033 39.0642 139.962 41.9086 146.621C62.3812 163.663 82.1811 171.184 101.308 169.185L117.885 167.453C149.551 164.143 171.005 141.243 182.248 98.754C196.138 93.9296 207.367 87.2756 215.933 78.7919C215.563 75.2472 213.078 72.029 208.479 69.1371C183.613 71.7359 170.821 69.595 170.102 62.7142ZM34.9858 120.469L30.6127 118.713C37.2401 67.0099 58.937 39.237 95.7034 35.3942L99.8476 34.961C146.564 39.9853 171.339 56.0505 174.172 83.1567C174.87 89.829 134 101.689 51.5625 118.737L34.9858 120.469ZM178.513 84.6001L177.467 74.5917C178.954 74.4362 181.003 73.4843 183.613 71.7359C201.961 72.5585 211.277 74.3251 211.56 77.0357L209.753 81.3349C153.385 109.359 93.5355 126.681 30.2037 133.3L19.6839 134.4L4.79096 133.743L4.59482 131.866C5.22158 127.585 13.0496 121.286 28.0789 112.97C28.2097 114.222 27.5312 114.925 26.0436 115.08C26.7627 121.961 33.3917 124.746 45.9306 123.436C135.147 105.469 179.341 92.5235 178.513 84.6001ZM111.28 165.93C81.9522 168.995 57.8312 159.185 38.9171 136.5C76.5336 132.568 122.929 120.131 178.104 99.1872C178.431 102.315 177.97 105.103 176.722 107.552C164.123 143.227 142.309 162.686 111.28 165.93Z" fill="url(#paint0_linear_30_57)"/>
<defs>
<linearGradient id="paint0_linear_30_57" x1="216.788" y1="0.111389" x2="216.788" y2="201.588" gradientUnits="userSpaceOnUse">
<stop stop-color="#FFE4AF"/>
<stop offset="1" stop-color="white"/>
</linearGradient>
</defs>
</svg>
